<svg width="1220" height="293" viewBox="0 0 1220 293" version="1.1" xmlns="http://www.w3.org/2000/svg" xmlns:xlink="http://www.w3.org/1999/xlink" xmlns:figma="http://www.figma.com/figma/ns">
<title>DOMA</title>
<desc>Created using Figma</desc>
<g id="Canvas" transform="translate(174 -433)" figma:type="canvas">
<g id="DOMA" figma:type="text">
<use xlink:href="#path0_fill" transform="translate(-258 404)" fill="url(#paint0_linear)"/>
</g>
</g>
<defs>
<linearGradient id="paint0_linear" x1="0" y1="0" x2="1" y2="0" gradientUnits="userSpaceOnUse" gradientTransform="matrix(1097.5 332.5 -1294 4271.18 740.001 -2135.59)">
<stop offset="0" stop-color="#C10000"/>
<stop offset="1" stop-color="#EB5757"/>
</linearGradient>
<path id="path0_fill" d="M 85.7344 71.1641C 85.7344 63.7422 86.9062 57.7526 89.25 53.1953C 91.5938 48.5078 94.5234 44.9271 98.0391 42.4531C 101.685 39.849 105.656 38.1562 109.953 37.375C 114.38 36.4635 118.742 36.0078 123.039 36.0078L 161.516 36.0078C 172.714 36.0078 184.562 37.4401 197.062 40.3047C 209.693 43.0391 222.193 47.1406 234.562 52.6094C 247.062 58.0781 258.977 64.849 270.305 72.9219C 281.633 80.8646 291.659 90.1094 300.383 100.656C 309.107 111.073 316.008 122.727 321.086 135.617C 326.294 148.378 328.898 162.31 328.898 177.414C 328.898 193.299 326.424 207.492 321.477 219.992C 316.529 232.492 309.888 243.43 301.555 252.805C 293.221 262.18 283.521 270.188 272.453 276.828C 261.516 283.339 250.057 288.677 238.078 292.844C 226.099 296.88 213.99 299.81 201.75 301.633C 189.51 303.456 177.922 304.367 166.984 304.367C 164.12 304.367 160.669 304.302 156.633 304.172C 152.727 304.172 148.69 304.042 144.523 303.781C 140.357 303.651 136.32 303.391 132.414 303C 128.638 302.609 125.383 302.154 122.648 301.633C 120.174 303.065 117.505 304.367 114.641 305.539C 111.906 306.711 109.823 307.297 108.391 307.297C 103.312 307.297 99.2109 305.604 96.0859 302.219C 92.9609 298.703 90.5521 294.406 88.8594 289.328C 87.1667 284.25 85.9948 278.781 85.3438 272.922C 84.8229 266.932 84.5625 261.464 84.5625 256.516L 85.7344 71.1641ZM 126.164 265.891C 126.555 266.281 127.336 266.737 128.508 267.258C 129.68 267.648 131.112 267.974 132.805 268.234C 134.497 268.495 136.32 268.755 138.273 269.016C 140.357 269.146 142.44 269.211 144.523 269.211L 175.969 269.211C 183.521 269.211 191.659 268.365 200.383 266.672C 209.237 264.979 218.026 262.505 226.75 259.25C 235.474 255.865 243.807 251.763 251.75 246.945C 259.823 241.997 266.919 236.398 273.039 230.148C 279.159 223.898 284.042 216.997 287.688 209.445C 291.464 201.763 293.352 193.495 293.352 184.641C 293.352 173.833 291.529 163.482 287.883 153.586C 284.367 143.56 279.549 134.25 273.43 125.656C 267.31 117.062 260.148 109.25 251.945 102.219C 243.742 95.1875 234.953 89.1979 225.578 84.25C 216.203 79.1719 206.503 75.2656 196.477 72.5312C 186.581 69.7969 176.815 68.4297 167.18 68.4297C 164.576 68.4297 161.06 68.4948 156.633 68.625C 152.206 68.625 147.714 68.7552 143.156 69.0156C 138.729 69.276 134.693 69.6016 131.047 69.9922C 127.401 70.3828 124.992 70.9688 123.82 71.75C 122.779 76.4375 121.997 80.9948 121.477 85.4219C 121.086 89.849 120.76 94.3411 120.5 98.8984C 120.37 103.326 120.305 107.883 120.305 112.57C 120.305 117.258 120.305 122.271 120.305 127.609C 120.305 133.078 120.305 139.458 120.305 146.75C 120.435 153.911 120.565 161.594 120.695 169.797C 120.826 178 121.021 186.464 121.281 195.188C 121.672 203.911 122.062 212.505 122.453 220.969C 122.844 229.432 123.365 237.505 124.016 245.188C 124.667 252.87 125.383 259.771 126.164 265.891ZM 378.898 169.992C 378.898 153.195 380.721 138.091 384.367 124.68C 388.143 111.268 393.286 99.4844 399.797 89.3281C 406.438 79.0417 414.25 70.2526 423.234 62.9609C 432.349 55.6693 442.18 49.6797 452.727 44.9922C 463.273 40.3047 474.341 36.9193 485.93 34.8359C 497.648 32.6224 509.432 31.5156 521.281 31.5156C 541.724 31.5156 560.083 34.8359 576.359 41.4766C 592.635 48.1172 606.438 57.6875 617.766 70.1875C 629.094 82.5573 637.753 97.7266 643.742 115.695C 649.732 133.534 652.727 153.716 652.727 176.242C 652.727 189.263 650.969 201.568 647.453 213.156C 644.068 224.745 639.315 235.422 633.195 245.188C 627.076 254.953 619.784 263.742 611.32 271.555C 602.987 279.237 593.807 285.812 583.781 291.281C 573.755 296.75 563.143 300.917 551.945 303.781C 540.747 306.646 529.354 308.078 517.766 308.078C 505.396 308.078 493.352 306.125 481.633 302.219C 470.044 298.312 459.107 292.974 448.82 286.203C 438.534 279.432 429.094 271.555 420.5 262.57C 411.906 253.586 404.549 243.951 398.43 233.664C 392.31 223.378 387.492 212.831 383.977 202.023C 380.591 191.086 378.898 180.409 378.898 169.992ZM 414.445 164.133C 414.445 172.987 415.682 181.906 418.156 190.891C 420.76 199.745 424.341 208.273 428.898 216.477C 433.586 224.68 439.055 232.362 445.305 239.523C 451.555 246.555 458.391 252.74 465.812 258.078C 473.365 263.286 481.307 267.453 489.641 270.578C 497.974 273.573 506.503 275.07 515.227 275.07C 529.029 275.07 542.115 272.857 554.484 268.43C 566.984 263.872 577.922 257.232 587.297 248.508C 596.672 239.784 604.094 228.977 609.562 216.086C 615.031 203.195 617.766 188.352 617.766 171.555C 617.766 155.148 615.422 140.37 610.734 127.219C 606.177 114.068 599.797 102.87 591.594 93.625C 583.391 84.3802 573.69 77.2839 562.492 72.3359C 551.294 67.388 539.12 64.9141 525.969 64.9141C 511.776 64.9141 497.974 66.9323 484.562 70.9688C 471.281 75.0052 459.432 81.125 449.016 89.3281C 438.599 97.5312 430.201 107.883 423.82 120.383C 417.57 132.753 414.445 147.336 414.445 164.133ZM 714.445 268.43C 714.445 265.435 714.771 262.375 715.422 259.25C 716.073 256.125 716.398 253.13 716.398 250.266C 716.398 221.75 716.529 197.727 716.789 178.195C 717.049 158.534 717.31 142.193 717.57 129.172C 717.961 116.151 718.286 105.799 718.547 98.1172C 718.807 90.3047 718.938 83.9896 718.938 79.1719C 718.938 73.3125 719.458 67.7135 720.5 62.375C 721.672 57.0365 723.234 52.349 725.188 48.3125C 727.141 44.1458 729.484 40.8906 732.219 38.5469C 734.953 36.0729 738.013 34.8359 741.398 34.8359C 744.263 34.8359 746.737 35.5521 748.82 36.9844C 750.904 38.2865 752.661 39.9792 754.094 42.0625C 755.526 44.1458 756.568 46.4896 757.219 49.0938C 758 51.6979 758.391 54.237 758.391 56.7109L 758.391 57.6875C 758.911 59.3802 759.367 61.4635 759.758 63.9375C 760.148 66.5417 761.32 70.3828 763.273 75.4609C 765.357 80.4089 767.896 86.0078 770.891 92.2578C 773.885 98.5078 777.141 105.083 780.656 111.984C 784.302 118.885 787.818 125.591 791.203 132.102C 794.589 138.612 797.714 144.602 800.578 150.07C 803.573 155.539 805.917 159.966 807.609 163.352C 808.651 165.565 809.953 168.365 811.516 171.75C 813.208 175.005 814.966 178.456 816.789 182.102C 818.612 185.747 820.435 189.393 822.258 193.039C 824.211 196.685 825.969 199.94 827.531 202.805C 829.094 205.669 830.396 208.013 831.438 209.836C 832.609 211.659 833.391 212.57 833.781 212.57C 835.083 212.57 836.581 211.984 838.273 210.812C 839.966 209.51 841.594 208.013 843.156 206.32C 844.849 204.628 846.281 203 847.453 201.438C 848.755 199.875 849.667 198.703 850.188 197.922C 851.229 196.229 852.466 194.341 853.898 192.258C 855.331 190.044 857.023 187.375 858.977 184.25C 861.06 180.995 863.469 177.154 866.203 172.727C 868.938 168.169 872.258 162.635 876.164 156.125C 880.201 149.354 884.693 142.128 889.641 134.445C 894.719 126.763 899.797 119.016 904.875 111.203C 909.953 103.26 914.771 95.4479 919.328 87.7656C 924.016 80.0833 927.922 72.9219 931.047 66.2812C 932.089 63.9375 933.13 61.3984 934.172 58.6641C 935.214 55.9297 936.451 53.2604 937.883 50.6562C 938.664 48.4427 939.51 46.3594 940.422 44.4062C 941.464 42.3229 942.635 40.5651 943.938 39.1328C 945.37 37.5703 946.932 36.3333 948.625 35.4219C 950.448 34.5104 952.596 34.0547 955.07 34.0547C 961.711 34.0547 966.919 36.0078 970.695 39.9141C 974.602 43.6901 976.555 48.8984 976.555 55.5391C 976.555 94.7318 975.904 134.51 974.602 174.875C 973.43 215.24 972.844 255.995 972.844 297.141C 972.844 299.745 972.193 301.828 970.891 303.391C 969.719 305.083 968.286 306.385 966.594 307.297C 965.031 308.208 963.469 308.859 961.906 309.25C 960.344 309.641 959.172 309.836 958.391 309.836C 958 309.836 956.372 309.51 953.508 308.859C 950.773 308.339 947.714 307.297 944.328 305.734C 941.073 304.172 938.078 302.023 935.344 299.289C 932.74 296.424 931.438 292.714 931.438 288.156C 931.438 285.031 931.828 281.841 932.609 278.586C 933.391 275.201 934.237 271.88 935.148 268.625C 936.19 265.37 937.167 262.18 938.078 259.055C 938.99 255.799 939.576 252.609 939.836 249.484L 939.836 151.047C 939.836 146.229 939.771 141.216 939.641 136.008C 939.641 130.669 939.51 125.331 939.25 119.992C 934.172 126.633 929.224 133.924 924.406 141.867C 919.719 149.68 914.966 157.753 910.148 166.086C 905.461 174.419 900.773 182.753 896.086 191.086C 891.398 199.419 886.646 207.427 881.828 215.109C 877.01 222.661 871.997 229.693 866.789 236.203C 861.711 242.583 856.438 248.052 850.969 252.609C 850.318 253.13 849.602 253.781 848.82 254.562C 848.169 255.214 847.193 255.865 845.891 256.516C 844.589 257.167 842.896 257.753 840.812 258.273C 838.729 258.664 835.995 258.859 832.609 258.859C 829.745 258.859 826.555 257.427 823.039 254.562C 819.654 251.698 816.138 247.987 812.492 243.43C 808.846 238.872 805.201 233.794 801.555 228.195C 797.909 222.596 794.523 217.128 791.398 211.789C 788.273 206.32 785.474 201.307 783 196.75C 780.526 192.062 778.638 188.352 777.336 185.617L 751.75 133.273C 751.49 139.784 751.294 147.271 751.164 155.734C 751.034 164.068 750.969 173.573 750.969 184.25L 750.969 254.758C 751.359 257.362 752.076 260.292 753.117 263.547C 754.159 266.802 754.68 269.927 754.68 272.922C 754.68 281.516 753.508 288.482 751.164 293.82C 748.951 299.029 744.914 301.633 739.055 301.633C 733.195 301.633 728.573 300.786 725.188 299.094C 721.932 297.401 719.523 295.057 717.961 292.062C 716.398 289.068 715.422 285.552 715.031 281.516C 714.641 277.479 714.445 273.117 714.445 268.43ZM 1032.22 286.203C 1032.22 281.516 1033 277.154 1034.56 273.117C 1036.12 269.081 1037.82 265.305 1039.64 261.789C 1039.9 261.268 1040.29 260.487 1040.81 259.445C 1041.46 258.273 1042.57 255.93 1044.13 252.414C 1045.7 248.768 1047.84 243.365 1050.58 236.203C 1053.44 229.042 1057.22 219.081 1061.91 206.32C 1061.78 204.758 1061.65 203.26 1061.52 201.828C 1061.52 200.396 1061.52 199.029 1061.52 197.727C 1061.52 192.388 1062.36 187.896 1064.05 184.25C 1065.88 180.474 1069.26 176.828 1074.21 173.312L 1123.82 69.7969C 1125.77 65.7604 1127.92 61.4635 1130.27 56.9062C 1132.61 52.2188 1135.21 47.9219 1138.08 44.0156C 1141.07 39.9792 1144.33 36.6589 1147.84 34.0547C 1151.49 31.3203 1155.46 29.9531 1159.76 29.9531C 1163.01 29.9531 1166.66 31.9062 1170.7 35.8125C 1174.73 39.5885 1178.83 44.5365 1183 50.6562C 1187.3 56.6458 1191.53 63.3516 1195.7 70.7734C 1199.99 78.0651 1203.9 85.1615 1207.41 92.0625C 1211.06 98.9635 1214.25 105.279 1216.98 111.008C 1219.72 116.607 1221.67 120.708 1222.84 123.312C 1229.35 137.896 1234.24 149.029 1237.49 156.711C 1240.75 164.263 1243.29 169.081 1245.11 171.164C 1251.1 174.94 1255.27 179.367 1257.61 184.445C 1259.95 189.393 1261.12 195.904 1261.12 203.977C 1264.77 213.221 1268.03 222.531 1270.89 231.906C 1273.89 241.151 1277.14 249.68 1280.66 257.492C 1283.26 263.221 1285.93 267.974 1288.66 271.75C 1291.4 275.396 1293.81 278.911 1295.89 282.297C 1298.1 285.552 1299.86 289.003 1301.16 292.648C 1302.6 296.164 1303.31 300.721 1303.31 306.32C 1303.31 310.096 1302.4 312.961 1300.58 314.914C 1298.76 316.997 1296.54 318.495 1293.94 319.406C 1291.46 320.448 1288.92 321.034 1286.32 321.164C 1283.72 321.294 1281.63 321.359 1280.07 321.359C 1276.03 321.359 1272 319.081 1267.96 314.523C 1263.92 309.966 1260.15 304.562 1256.63 298.312C 1253.12 291.932 1249.99 285.422 1247.26 278.781C 1244.65 272.141 1242.77 266.672 1241.59 262.375C 1240.16 257.557 1238.66 252.479 1237.1 247.141C 1235.67 241.802 1234.24 236.854 1232.8 232.297C 1231.37 227.609 1229.88 223.638 1228.31 220.383C 1226.88 217.128 1225.45 215.109 1224.02 214.328C 1221.93 212.505 1219.59 211.333 1216.98 210.812C 1214.38 210.161 1210.93 209.836 1206.63 209.836C 1199.21 209.836 1191.72 209.836 1184.17 209.836C 1176.62 209.706 1168.87 209.641 1160.93 209.641C 1152.99 209.51 1144.72 209.445 1136.12 209.445C 1127.66 209.315 1118.68 209.25 1109.17 209.25C 1106.57 209.25 1104.42 209.51 1102.73 210.031C 1101.16 210.422 1099.67 211.464 1098.23 213.156C 1096.93 214.719 1095.57 217.062 1094.13 220.188C 1092.83 223.312 1091.27 227.609 1089.45 233.078L 1073.82 275.07C 1072.65 279.237 1071.54 283.143 1070.5 286.789C 1069.46 290.305 1068.48 292.779 1067.57 294.211C 1066.4 296.164 1065.1 297.727 1063.66 298.898C 1062.36 299.94 1060.99 300.721 1059.56 301.242C 1058.13 301.763 1056.63 302.089 1055.07 302.219C 1053.51 302.219 1051.95 302.219 1050.38 302.219C 1044.78 302.219 1040.36 301.112 1037.1 298.898C 1033.85 296.555 1032.22 292.323 1032.22 286.203ZM 1113.08 173.703C 1125.45 173.833 1135.6 173.964 1143.55 174.094C 1151.62 174.224 1158.2 174.354 1163.27 174.484C 1168.35 174.615 1172.32 174.745 1175.19 174.875C 1178.05 174.875 1180.59 174.875 1182.8 174.875C 1184.37 174.875 1185.86 174.875 1187.3 174.875C 1188.73 174.745 1190.36 174.68 1192.18 174.68C 1194.13 174.549 1196.35 174.419 1198.82 174.289C 1201.42 174.159 1204.55 173.964 1208.2 173.703C 1206.37 168.495 1203.57 161.919 1199.8 153.977C 1196.15 146.034 1192.11 137.831 1187.69 129.367C 1183.39 120.773 1179.09 112.44 1174.8 104.367C 1170.5 96.2943 1166.92 89.4583 1164.05 83.8594C 1161.45 78.9115 1159.37 76.4375 1157.8 76.4375C 1157.02 76.4375 1155.53 78.3906 1153.31 82.2969C 1151.1 86.0729 1148.49 90.9557 1145.5 96.9453C 1142.64 102.935 1139.58 109.706 1136.32 117.258C 1133.07 124.68 1129.88 131.971 1126.75 139.133C 1123.76 146.294 1121.02 153 1118.55 159.25C 1116.07 165.37 1114.25 170.188 1113.08 173.703Z"/>
</defs>
</svg>
