<svg width="1204" height="512" viewBox="0 0 1204 512" version="1.1" xmlns="http://www.w3.org/2000/svg" xmlns:xlink="http://www.w3.org/1999/xlink" xmlns:figma="http://www.figma.com/figma/ns">
<title>brionz logo red</title>
<desc>Created using Figma</desc>
<g id="Canvas" transform="translate(393 121)" figma:type="canvas">
<g id="brionz logo red" figma:type="vector-operation">
<use xlink:href="#path0_fill" transform="translate(-393 -121)" fill="#FF0000"/>
</g>
</g>
<defs>
<path id="path0_fill" fill-rule="evenodd" d="M 512 256C 512 397.385 397.385 512 256 512C 114.615 512 0 397.385 0 256C 0 114.615 114.615 0 256 0C 397.385 0 512 114.615 512 256ZM 239.59 287.384C 239.59 301.042 237.259 313.508 232.598 324.782C 227.937 336.055 221.596 345.757 213.574 353.887C 205.553 361.908 196.122 368.141 185.282 372.585C 174.551 377.03 163.006 379.252 150.649 379.252C 138.4 379.252 126.855 376.976 116.016 372.423C 105.284 367.87 95.8535 361.529 87.7236 353.399C 79.7021 345.269 73.3608 335.622 68.6997 324.457C 64.0386 313.183 61.708 300.826 61.708 287.384L 61.708 132.591L 106.26 132.591L 106.26 213.89C 108.645 210.855 111.517 208.145 114.877 205.76C 118.346 203.375 122.032 201.424 125.934 199.907C 129.945 198.389 134.064 197.251 138.292 196.492C 142.519 195.625 146.638 195.191 150.649 195.191C 163.006 195.191 174.551 197.522 185.282 202.183C 196.122 206.736 205.553 213.131 213.574 221.37C 221.596 229.608 227.937 239.364 232.598 250.637C 237.259 261.802 239.59 274.051 239.59 287.384ZM 194.875 287.384C 194.875 280.664 193.683 274.431 191.298 268.686C 189.022 262.832 185.878 257.792 181.868 253.564C 177.857 249.336 173.142 246.03 167.722 243.646C 162.41 241.261 156.719 240.068 150.649 240.068C 144.579 240.068 138.833 241.423 133.414 244.133C 128.102 246.735 123.441 250.258 119.43 254.702C 115.419 259.038 112.276 264.079 110 269.824C 107.723 275.46 106.585 281.314 106.585 287.384C 106.585 294.105 107.723 300.338 110 306.083C 112.276 311.828 115.419 316.814 119.43 321.042C 123.441 325.27 128.102 328.63 133.414 331.123C 138.833 333.508 144.579 334.7 150.649 334.7C 156.719 334.7 162.41 333.508 167.722 331.123C 173.142 328.63 177.857 325.27 181.868 321.042C 185.878 316.814 189.022 311.828 191.298 306.083C 193.683 300.338 194.875 294.105 194.875 287.384ZM 315.686 189.5L 315.686 282.832L 362.351 282.832C 368.747 282.832 374.763 281.639 380.399 279.254C 386.036 276.761 390.968 273.401 395.196 269.173C 399.423 264.946 402.729 260.014 405.114 254.377C 407.607 248.632 408.854 242.562 408.854 236.166C 408.854 229.771 407.607 223.754 405.114 218.118C 402.729 212.373 399.423 207.386 395.196 203.159C 390.968 198.931 386.036 195.625 380.399 193.24C 374.763 190.747 368.747 189.5 362.351 189.5L 315.686 189.5ZM 315.686 376L 269.02 376L 269.02 142.835L 362.351 142.835C 370.915 142.835 379.153 143.973 387.066 146.25C 394.979 148.417 402.35 151.561 409.179 155.68C 416.117 159.691 422.404 164.569 428.041 170.314C 433.786 175.951 438.664 182.238 442.674 189.175C 446.793 196.113 449.937 203.538 452.105 211.451C 454.381 219.364 455.52 227.603 455.52 236.166C 455.52 244.188 454.49 251.992 452.43 259.58C 450.479 267.168 447.606 274.376 443.812 281.206C 440.127 288.035 435.574 294.322 430.154 300.067C 424.734 305.812 418.664 310.798 411.943 315.026L 437.796 376L 388.204 376L 367.879 329.009L 315.686 329.334L 315.686 376ZM 623.181 167.086C 624.807 163.509 625.62 159.661 625.62 155.542C 625.62 151.531 624.807 147.737 623.181 144.16C 621.664 140.475 619.55 137.331 616.84 134.729C 614.13 132.02 610.932 129.906 607.247 128.388C 603.669 126.762 599.821 125.949 595.702 125.949C 591.583 125.949 587.681 126.762 583.995 128.388C 580.418 129.906 577.274 132.02 574.564 134.729C 571.963 137.331 569.849 140.475 568.223 144.16C 566.706 147.737 565.947 151.531 565.947 155.542C 565.947 159.661 566.706 163.509 568.223 167.086C 569.849 170.664 571.963 173.807 574.564 176.517C 577.274 179.119 580.418 181.232 583.995 182.858C 587.681 184.376 591.583 185.135 595.702 185.135C 599.821 185.135 603.669 184.376 607.247 182.858C 610.932 181.232 614.13 179.119 616.84 176.517C 619.55 173.807 621.664 170.664 623.181 167.086ZM 573.264 377L 617.978 377L 617.978 202.858L 573.264 202.858L 573.264 377ZM 813.258 324.806C 817.919 313.533 820.25 301.392 820.25 288.384C 820.25 274.509 817.919 261.935 813.258 250.662C 808.597 239.28 802.255 229.578 794.234 221.557C 786.212 213.427 776.782 207.194 765.942 202.858C 755.21 198.414 743.666 196.191 731.309 196.191C 719.06 196.191 707.515 198.522 696.675 203.183C 685.944 207.844 676.513 214.294 668.383 222.532C 660.362 230.662 654.021 240.364 649.359 251.637C 644.698 262.911 642.368 275.16 642.368 288.384C 642.368 301.392 644.698 313.533 649.359 324.806C 654.021 335.971 660.362 345.673 668.383 353.911C 676.513 362.041 685.944 368.491 696.675 373.26C 707.515 377.921 719.06 380.252 731.309 380.252C 743.666 380.252 755.21 377.921 765.942 373.26C 776.782 368.491 786.212 362.041 794.234 353.911C 802.255 345.673 808.597 335.971 813.258 324.806ZM 771.958 269.035C 774.343 274.78 775.535 281.23 775.535 288.384C 775.535 295.43 774.343 301.88 771.958 307.733C 769.682 313.587 766.538 318.573 762.527 322.692C 758.517 326.812 753.801 330.009 748.381 332.286C 743.07 334.562 737.379 335.7 731.309 335.7C 725.238 335.7 719.493 334.508 714.073 332.123C 708.762 329.63 704.101 326.27 700.09 322.042C 696.188 317.814 693.098 312.828 690.822 307.083C 688.545 301.338 687.407 295.105 687.407 288.384C 687.407 281.23 688.545 274.78 690.822 269.035C 693.098 263.182 696.188 258.195 700.09 254.076C 704.101 249.849 708.762 246.651 714.073 244.483C 719.493 242.207 725.238 241.068 731.309 241.068C 737.379 241.068 743.07 242.207 748.381 244.483C 753.801 246.651 758.517 249.849 762.527 254.076C 766.538 258.195 769.682 263.182 771.958 269.035ZM 844.802 377L 889.191 377L 889.191 277.49C 889.191 272.938 890.058 268.656 891.792 264.645C 893.527 260.526 895.912 256.949 898.947 253.914C 901.982 250.878 905.559 248.494 909.678 246.759C 913.797 245.025 918.188 244.158 922.849 244.158C 927.401 244.158 931.683 245.025 935.694 246.759C 939.705 248.494 943.228 250.878 946.263 253.914C 949.298 256.949 951.683 260.526 953.417 264.645C 955.151 268.656 956.019 272.938 956.019 277.49L 956.019 377L 1000.41 377L 1000.41 277.49C 1000.41 266.759 998.348 256.678 994.229 247.247C 990.218 237.708 984.69 229.416 977.644 222.37C 970.598 215.215 962.36 209.633 952.929 205.622C 943.499 201.503 933.472 199.443 922.849 199.443C 912.984 199.443 903.5 201.232 894.394 204.809C 885.397 208.278 877.321 213.264 870.167 219.768L 855.533 202.858L 844.802 202.858L 844.802 377ZM 1022.85 377L 1203.33 377L 1203.33 330.334L 1104.15 330.334L 1203.33 143.835L 1022.85 143.835L 1022.85 190.5L 1122.36 190.5L 1022.85 377Z"/>
</defs>
</svg>
